<?xml version="1.0" encoding="utf-8"?>
<!-- Generator: Adobe Illustrator 16.0.0, SVG Export Plug-In . SVG Version: 6.00 Build 0)  -->
<!DOCTYPE svg PUBLIC "-//W3C//DTD SVG 1.1//EN" "http://www.w3.org/Graphics/SVG/1.1/DTD/svg11.dtd">
<svg version="1.1" id="Layer_1" xmlns="http://www.w3.org/2000/svg" xmlns:xlink="http://www.w3.org/1999/xlink" x="0px" y="0px"
	 width="266.229px" height="96.91px" viewBox="0 0 266.229 96.91" enable-background="new 0 0 266.229 96.91" xml:space="preserve">
<g>
	<g>
		<defs>
			<rect id="SVGID_1_" x="0" width="266.229" height="96.91"/>
		</defs>
		<clipPath id="SVGID_2_">
			<use xlink:href="#SVGID_1_"  overflow="visible"/>
		</clipPath>
		<path clip-path="url(#SVGID_2_)" fill="#B72025" d="M67.89,29.05c0.694-1.627,1.648-3.118,2.496-4.662
			c3.494-6.367,7.026-12.708,10.553-19.061c0.186-0.332,0.307-0.716,0.74-1.016c0.37,1.231,0.735,2.416,1.081,3.61
			c3.722,12.933,7.44,25.865,11.161,38.799c0.088,0.297,0.253,0.581,0.164,0.915c-1.021-0.072-2.023,0.152-3.034,0.185
			c-1.872,0.068-3.751,0.07-5.622,0.117c-2.775,0.07-5.544,0.269-8.321,0.207c-0.053-0.019-0.103-0.047-0.152-0.081
			c0.004-0.411-0.221-0.749-0.391-1.098c-2.148-4.504-4.281-9.009-6.459-13.494C69.387,31.987,68.77,30.453,67.89,29.05"/>
	</g>
	<g>
		<defs>
			<rect id="SVGID_3_" x="0" width="266.229" height="96.91"/>
		</defs>
		<clipPath id="SVGID_4_">
			<use xlink:href="#SVGID_3_"  overflow="visible"/>
		</clipPath>
		<path clip-path="url(#SVGID_4_)" fill="#C62828" d="M77.108,47.925c2.776,0.062,5.546-0.137,8.321-0.206
			c1.87-0.048,3.75-0.05,5.622-0.118c1.011-0.033,2.014-0.257,3.034-0.185c0.075,0.318-0.023,0.617-0.099,0.923
			c-2.314,9.295-4.621,18.588-6.933,27.887c-1.2,4.838-2.402,9.68-3.604,14.516c-0.089,0.34-0.194,0.666-0.297,1.016
			c-0.384-0.198-0.488-0.555-0.665-0.848c-4.102-6.793-8.202-13.595-12.299-20.388c-0.078-0.131-0.116-0.282-0.173-0.429
			c1.394-4.287,2.789-8.571,4.165-12.865C75.176,54.134,76.135,51.028,77.108,47.925"/>
	</g>
	<g>
		<defs>
			<rect id="SVGID_5_" x="0" width="266.229" height="96.91"/>
		</defs>
		<clipPath id="SVGID_6_">
			<use xlink:href="#SVGID_5_"  overflow="visible"/>
		</clipPath>
		<path clip-path="url(#SVGID_6_)" fill="#C24A4A" d="M76.956,48.063c-0.895,0.081-1.797,0.242-2.689,0.225
			c-3.302-0.055-6.594,0.174-9.894,0.214c-2.435,0.028-4.864,0.217-7.297,0.122c0.064-0.176,0.107-0.37,0.197-0.536
			c3.444-6.226,6.891-12.446,10.343-18.67c0.069-0.132,0.18-0.245,0.274-0.368c0.88,1.403,1.497,2.937,2.215,4.421
			c2.178,4.485,4.311,8.99,6.46,13.493C76.735,47.314,76.958,47.652,76.956,48.063"/>
	</g>
	<g>
		<defs>
			<rect id="SVGID_7_" x="0" width="266.229" height="96.91"/>
		</defs>
		<clipPath id="SVGID_8_">
			<use xlink:href="#SVGID_7_"  overflow="visible"/>
		</clipPath>
		<path clip-path="url(#SVGID_8_)" fill="#E46D25" d="M62.584,72.57c1.06,1.417,1.87,2.989,2.781,4.498
			c3.755,6.217,7.469,12.452,11.195,18.689c0.194,0.326,0.466,0.625,0.508,1.15c-1.25-0.299-2.46-0.576-3.666-0.877
			c-13.055-3.267-26.106-6.537-39.162-9.806c-0.302-0.073-0.631-0.073-0.873-0.317c0.572-0.846,0.883-1.826,1.361-2.717
			c0.88-1.654,1.82-3.281,2.718-4.924c1.331-2.436,2.549-4.93,3.994-7.301c0.044-0.037,0.094-0.066,0.147-0.094
			c0.354,0.211,0.759,0.188,1.146,0.215c4.975,0.398,9.942,0.813,14.914,1.181C59.292,72.392,60.929,72.626,62.584,72.57"/>
	</g>
	<g>
		<defs>
			<rect id="SVGID_9_" x="0" width="266.229" height="96.91"/>
		</defs>
		<clipPath id="SVGID_10_">
			<use xlink:href="#SVGID_9_"  overflow="visible"/>
		</clipPath>
		<path clip-path="url(#SVGID_10_)" fill="#E59525" d="M41.441,70.966c-1.445,2.371-2.663,4.867-3.995,7.302
			c-0.896,1.644-1.838,3.271-2.718,4.924c-0.478,0.892-0.788,1.871-1.361,2.718c-0.313-0.096-0.522-0.33-0.749-0.548
			c-6.882-6.666-13.763-13.323-20.648-19.987C8.386,61.91,4.801,58.443,1.22,54.976c-0.249-0.246-0.479-0.503-0.731-0.768
			c0.367-0.231,0.728-0.144,1.068-0.148c7.935-0.143,15.875-0.277,23.807-0.413c0.152-0.002,0.304,0.042,0.456,0.063
			c3.013,3.355,6.018,6.713,9.041,10.058C37.04,66.181,39.246,68.569,41.441,70.966"/>
	</g>
	<g>
		<defs>
			<rect id="SVGID_11_" x="0" width="266.229" height="96.91"/>
		</defs>
		<clipPath id="SVGID_12_">
			<use xlink:href="#SVGID_11_"  overflow="visible"/>
		</clipPath>
		<path clip-path="url(#SVGID_12_)" fill="#E5AF41" d="M41.588,70.875c0.379-0.812,0.692-1.674,1.155-2.438
			c1.702-2.829,3.156-5.791,4.777-8.666c1.195-2.12,2.251-4.316,3.555-6.374c0.119,0.144,0.266,0.278,0.363,0.44
			c3.658,6.102,7.312,12.203,10.963,18.312c0.08,0.127,0.123,0.278,0.183,0.422c-1.655,0.06-3.292-0.178-4.937-0.301
			c-4.972-0.366-9.939-0.78-14.914-1.181C42.347,71.061,41.942,71.085,41.588,70.875"/>
	</g>
	<g>
		<defs>
			<rect id="SVGID_13_" x="0" width="266.229" height="96.91"/>
		</defs>
		<clipPath id="SVGID_14_">
			<use xlink:href="#SVGID_13_"  overflow="visible"/>
		</clipPath>
		<path clip-path="url(#SVGID_14_)" fill="#1E5F30" d="M28.293,46.122c-1.749,0.266-3.519,0.24-5.277,0.333
			c-7.253,0.384-14.503,0.721-21.762,1.069C0.876,47.542,0.485,47.642,0,47.431c0.853-0.962,1.668-1.898,2.501-2.82
			c9.032-9.977,18.065-19.949,27.1-29.924c0.207-0.231,0.362-0.522,0.691-0.622c0.477,0.905,1.194,1.64,1.756,2.482
			c1.043,1.556,2.036,3.152,3.062,4.717c1.521,2.321,3.148,4.571,4.56,6.963c0.011,0.057,0.014,0.114,0.011,0.173
			c-0.352,0.214-0.521,0.582-0.729,0.911c-2.695,4.198-5.402,8.385-8.068,12.598C30.001,43.302,29.022,44.634,28.293,46.122"/>
	</g>
	<g>
		<defs>
			<rect id="SVGID_15_" x="0" width="266.229" height="96.91"/>
		</defs>
		<clipPath id="SVGID_16_">
			<use xlink:href="#SVGID_15_"  overflow="visible"/>
		</clipPath>
		<path clip-path="url(#SVGID_16_)" fill="#317E3D" d="M39.668,28.227c-1.41-2.393-3.039-4.642-4.56-6.963
			c-1.025-1.566-2.018-3.161-3.062-4.718c-0.561-0.841-1.279-1.577-1.755-2.481c0.23-0.232,0.538-0.306,0.836-0.404
			C40.25,10.733,49.363,7.8,58.485,4.866c4.745-1.528,9.492-3.057,14.237-4.582C73.058,0.18,73.392,0.098,73.742,0
			c0.032,0.433-0.216,0.709-0.371,1.012c-3.612,7.067-7.235,14.134-10.852,21.195c-0.069,0.134-0.18,0.247-0.272,0.372
			c-4.378,1.075-8.755,2.144-13.129,3.236C45.962,26.6,42.818,27.42,39.668,28.227"/>
	</g>
	<g>
		<defs>
			<rect id="SVGID_17_" x="0" width="266.229" height="96.91"/>
		</defs>
		<clipPath id="SVGID_18_">
			<use xlink:href="#SVGID_17_"  overflow="visible"/>
		</clipPath>
		<path clip-path="url(#SVGID_18_)" fill="#378F43" d="M39.68,28.399c0.539,0.717,1.152,1.401,1.608,2.168
			c1.692,2.835,3.62,5.514,5.393,8.297c1.306,2.054,2.747,4.019,3.948,6.139c-0.185,0.037-0.372,0.104-0.561,0.113
			c-7.105,0.352-14.209,0.7-21.317,1.043c-0.15,0.01-0.303-0.024-0.458-0.038c0.729-1.488,1.708-2.82,2.591-4.213
			c2.666-4.213,5.373-8.4,8.067-12.598C39.159,28.981,39.328,28.613,39.68,28.399"/>
	</g>
	<g>
		<defs>
			<rect id="SVGID_19_" x="0" width="266.229" height="96.91"/>
		</defs>
		<clipPath id="SVGID_20_">
			<use xlink:href="#SVGID_19_"  overflow="visible"/>
		</clipPath>
		<g clip-path="url(#SVGID_20_)">
			<text transform="matrix(1.1746 0 0 1 101.4514 21.1304)" fill="#FFFFFF" font-family="'HelveticaNeueCE-Thin'" font-size="28">Apple</text>
		</g>
	</g>
	<g>
		<defs>
			<rect id="SVGID_21_" x="0" width="266.229" height="96.91"/>
		</defs>
		<clipPath id="SVGID_22_">
			<use xlink:href="#SVGID_21_"  overflow="visible"/>
		</clipPath>
		<g clip-path="url(#SVGID_22_)">
			<text transform="matrix(1.1746 0 0 1 101.4514 55.9624)" fill="#FFFFFF" font-family="'HelveticaNeue'" font-size="28">Developers</text>
		</g>
	</g>
	<g>
		<defs>
			<rect id="SVGID_23_" x="0" width="266.229" height="96.91"/>
		</defs>
		<clipPath id="SVGID_24_">
			<use xlink:href="#SVGID_23_"  overflow="visible"/>
		</clipPath>
		<g clip-path="url(#SVGID_24_)">
			<text transform="matrix(1.1746 0 0 1 101.4514 90.7944)" fill="#FFFFFF" font-family="'HelveticaNeueCE-Thin'" font-size="28">Group</text>
		</g>
	</g>
</g>
</svg>
